# xmcd
#
# Track frame offsets: 
#        150
#        20025
#        53808
#        70980
#        88167
#        100914
#        122164
#        140293
#        159421
#        184056
#        204327
#        223282
#        251094
#        265683
#        287969
#        315285
#        334613
#
# Disc length: 4782 seconds
#
# Revision: 1
# Processed by: cddbd v1.5.2PL0 Copyright (c) Steve Scherf et al.
# Submitted via: ExactAudioCopy v1.3
#
DISCID=fe12ac11
DTITLE=Various Artist - Akella Presents - vol.62 - Various Styles Of 
DTITLE=Blues  CD2
DYEAR=2015
DGENRE=Blues
TTITLE0=The Bluebirds - Don't Take My Place
TTITLE1=The FIve Dollar Sugar - Gotcha
TTITLE2=Tracy Niles - Black Heart Blues
TTITLE3=Ray Bonneville - Nothing to lose
TTITLE4=Dean Hall - Hillbilly Cool
TTITLE5=Yungjohnn - Grand Illusion
TTITLE6=Brad Wilson - Hot Stuff
TTITLE7=Rehab All Stars - Nutbush City
TTITLE8=Kim Simmonds And Savoy Brown - Ain't Got Nobody
TTITLE9=Buddy Guy - Whiskey, Beer and Wine
TTITLE10=Ahlqvist and H.A.R.P - People Change
TTITLE11=Robin Trower - 'Til I Reach Home
TTITLE12=Eric Street Band - Come Dance With Me
TTITLE13=Lance Canales - Old Red
TTITLE14=Wily Bo Walker - Moon Over Indigo
TTITLE15=Howard 'Guitar' Luedtke and Blue Max - Tough Times
TTITLE16=West Water Outlaws - Gimme
EXTD=
EXTT0=
EXTT1=
EXTT2=
EXTT3=
EXTT4=
EXTT5=
EXTT6=
EXTT7=
EXTT8=
EXTT9=
EXTT10=
EXTT11=
EXTT12=
EXTT13=
EXTT14=
EXTT15=
EXTT16=
PLAYORDER=
